<svg xmlns="http://www.w3.org/2000/svg" width="21" height="21" viewBox="0 0 21 21" fill="none">
    <path d="M20.4946 16.7775L17.82 13.4175L17.7247 7.5C17.7278 7.46006 17.7278 7.41994 17.7247 7.38C16.882 2.685 14.2147 0 10.397 0C6.36673 0 3.12788 3 2.33648 7.365C2.33252 7.40991 2.33252 7.45509 2.33648 7.5L2.24122 13.5L0.240751 16.86C0.176437 16.974 0.142578 17.1033 0.142578 17.235C0.142578 17.3667 0.176437 17.496 0.240751 17.61C0.302817 17.7261 0.393815 17.8234 0.504499 17.8919C0.615184 17.9604 0.74161 17.9977 0.870936 18H7.46589C7.46589 18.7956 7.7747 19.5587 8.32439 20.1213C8.87407 20.6839 9.61961 21 10.397 21C11.1744 21 11.9199 20.6839 12.4696 20.1213C13.0193 19.5587 13.3281 18.7956 13.3281 18H19.923C20.0611 17.9996 20.1963 17.9593 20.313 17.8836C20.4297 17.808 20.5231 17.7001 20.5825 17.5725C20.6427 17.445 20.6663 17.3027 20.6508 17.162C20.6352 17.0213 20.5811 16.888 20.4946 16.7775ZM10.397 19.5C10.0083 19.5 9.63553 19.342 9.36068 19.0607C9.08584 18.7794 8.93144 18.3978 8.93144 18H11.8625C11.8625 18.3978 11.7081 18.7794 11.4333 19.0607C11.1584 19.342 10.7857 19.5 10.397 19.5ZM2.16794 16.5L3.63349 14.07C3.69935 13.9564 3.73474 13.8271 3.73608 13.695L3.80203 7.575C4.46885 3.9375 7.11416 1.5 10.397 1.5C14.5225 1.5 15.8415 5.25 16.2592 7.575L16.3618 13.695C16.3627 13.8642 16.4195 14.028 16.523 14.16L18.3842 16.5H2.16794Z" fill="#969696"/>
</svg>