<svg xmlns="http://www.w3.org/2000/svg" width="20" height="20" viewBox="0 0 20 20" fill="none">
<path d="M18.75 11.4286C18.5858 11.4285 18.4232 11.4654 18.2715 11.5371C18.1198 11.6089 17.982 11.7141 17.8659 11.8468C17.7498 11.9794 17.6577 12.137 17.595 12.3103C17.5322 12.4837 17.4999 12.6695 17.5 12.8572V17.1429H2.5V12.8572C2.5 12.4783 2.3683 12.1149 2.13388 11.847C1.89946 11.5791 1.58152 11.4286 1.25 11.4286C0.91848 11.4286 0.600537 11.5791 0.366117 11.847C0.131696 12.1149 2.00941e-07 12.4783 2.00941e-07 12.8572V18.5714C-9.29127e-05 18.7591 0.0321757 18.9449 0.0949611 19.1183C0.157747 19.2916 0.249817 19.4492 0.365909 19.5818C0.482001 19.7145 0.619837 19.8197 0.771536 19.8915C0.923235 19.9632 1.08582 20.0001 1.25 20H18.75C18.9142 20.0001 19.0768 19.9632 19.2285 19.8915C19.3802 19.8197 19.518 19.7145 19.6341 19.5818C19.7502 19.4492 19.8423 19.2916 19.905 19.1183C19.9678 18.9449 20.0001 18.7591 20 18.5714V12.8572C20.0001 12.6695 19.9678 12.4837 19.905 12.3103C19.8423 12.137 19.7502 11.9794 19.6341 11.8468C19.518 11.7141 19.3802 11.6089 19.2285 11.5371C19.0768 11.4654 18.9142 11.4285 18.75 11.4286Z" fill="#969696"/>
<path d="M9.11631 13.8672C9.23235 13.9999 9.37013 14.1051 9.52177 14.1769C9.67342 14.2488 9.83595 14.2857 10.0001 14.2857C10.1642 14.2857 10.3268 14.2488 10.4784 14.1769C10.6301 14.1051 10.7679 13.9999 10.8839 13.8672L14.6339 9.58148C14.8672 9.31334 14.998 8.95041 14.9975 8.57225C14.9971 8.1941 14.8654 7.83158 14.6314 7.56419C14.3975 7.29679 14.0803 7.14634 13.7494 7.14581C13.4185 7.14529 13.1009 7.29473 12.8663 7.56138L11.2501 9.40848V1.42857C11.2501 1.04969 11.1184 0.686328 10.884 0.418419C10.6496 0.15051 10.3316 0 10.0001 0C9.66858 0 9.35064 0.15051 9.11622 0.418419C8.8818 0.686328 8.7501 1.04969 8.7501 1.42857V9.40848L7.13389 7.56138C6.89927 7.29473 6.58171 7.14529 6.25082 7.14581C5.91994 7.14634 5.60274 7.29679 5.36877 7.56419C5.13479 7.83158 5.00315 8.1941 5.00269 8.57225C5.00223 8.95041 5.13299 9.31334 5.36631 9.58148L9.11631 13.8672Z" fill="#969696"/>
</svg>