<svg xmlns="http://www.w3.org/2000/svg" width="20" height="20" viewBox="0 0 20 20" fill="none">
<path fill-rule="evenodd" clip-rule="evenodd" d="M16.6667 18.3333C15.7463 18.3333 15.0001 17.5871 15.0001 16.6666C15.0001 15.7462 15.7463 15 16.6667 15C17.5872 15 18.3334 15.7462 18.3334 16.6666C18.3334 17.5871 17.5872 18.3333 16.6667 18.3333ZM16.6667 11.6666C15.7463 11.6666 15.0001 10.9204 15.0001 9.99996C15.0001 9.07948 15.7463 8.33329 16.6667 8.33329C17.5872 8.33329 18.3334 9.07948 18.3334 9.99996C18.3334 10.9204 17.5872 11.6666 16.6667 11.6666ZM16.6667 4.99996C15.7463 4.99996 15.0001 4.25377 15.0001 3.33329C15.0001 2.41282 15.7463 1.66663 16.6667 1.66663C17.5872 1.66663 18.3334 2.41282 18.3334 3.33329C18.3334 4.25377 17.5872 4.99996 16.6667 4.99996ZM10.0001 18.3333C9.07961 18.3333 8.33341 17.5871 8.33341 16.6666C8.33341 15.7462 9.07961 15 10.0001 15C10.9206 15 11.6667 15.7462 11.6667 16.6666C11.6667 17.5871 10.9206 18.3333 10.0001 18.3333ZM10.0001 11.6666C9.07961 11.6666 8.33341 10.9204 8.33341 9.99996C8.33341 9.07948 9.07961 8.33329 10.0001 8.33329C10.9206 8.33329 11.6667 9.07948 11.6667 9.99996C11.6667 10.9204 10.9206 11.6666 10.0001 11.6666ZM10.0001 4.99996C9.07961 4.99996 8.33341 4.25377 8.33341 3.33329C8.33341 2.41282 9.07961 1.66663 10.0001 1.66663C10.9206 1.66663 11.6667 2.41282 11.6667 3.33329C11.6667 4.25377 10.9206 4.99996 10.0001 4.99996ZM3.33341 18.3333C2.41294 18.3333 1.66675 17.5871 1.66675 16.6666C1.66675 15.7462 2.41294 15 3.33341 15C4.25389 15 5.00008 15.7462 5.00008 16.6666C5.00008 17.5871 4.25389 18.3333 3.33341 18.3333ZM3.33341 11.6666C2.41294 11.6666 1.66675 10.9204 1.66675 9.99996C1.66675 9.07948 2.41294 8.33329 3.33341 8.33329C4.25389 8.33329 5.00008 9.07948 5.00008 9.99996C5.00008 10.9204 4.25389 11.6666 3.33341 11.6666ZM3.33341 4.99996C2.41294 4.99996 1.66675 4.25377 1.66675 3.33329C1.66675 2.41282 2.41294 1.66663 3.33341 1.66663C4.25389 1.66663 5.00008 2.41282 5.00008 3.33329C5.00008 4.25377 4.25389 4.99996 3.33341 4.99996Z" fill="#969696"/>
</svg>