<svg xmlns="http://www.w3.org/2000/svg" width="19" height="19" viewBox="0 0 19 19" fill="none">
<path d="M18.8896 17.7373L13.3574 12.2002C14.373 10.9307 14.9834 9.31445 14.9834 7.55664C14.9834 3.4502 11.6582 0.125 7.56152 0.125C3.45996 0.125 0.139648 3.45508 0.139648 7.55664C0.139648 11.6582 3.46484 14.9883 7.56152 14.9883C9.3291 14.9883 10.9502 14.3682 12.2246 13.3379L17.752 18.875L18.8896 17.7373ZM2.86426 12.2637C1.60937 11.0088 0.920898 9.33887 0.920898 7.56152C0.920898 5.78418 1.61426 4.11426 2.86426 2.85938C4.11426 1.60449 5.78906 0.90625 7.56152 0.90625C9.33398 0.90625 11.0039 1.59961 12.2588 2.85449C13.5137 4.10938 14.2021 5.7793 14.2021 7.55664C14.2021 9.33398 13.5088 11.0039 12.2588 12.2588C11.0039 13.5137 9.33398 14.207 7.56152 14.207C5.78906 14.2119 4.11914 13.5186 2.86426 12.2637Z" fill="#969696"/>
</svg>